<svg xmlns="http://www.w3.org/2000/svg" width="480" height="76" viewBox="0 0 480 76">
  <defs>
    <linearGradient id="gold-bg" x1="0%" y1="0%" x2="100%" y2="100%">
      <stop offset="0%" style="stop-color:#1a1a2e"/>
      <stop offset="100%" style="stop-color:#16213e"/>
    </linearGradient>
    <linearGradient id="gold-accent" x1="0%" y1="0%" x2="100%" y2="0%">
      <stop offset="0%" style="stop-color:#c9a84c"/>
      <stop offset="50%" style="stop-color:#f0d078"/>
      <stop offset="100%" style="stop-color:#c9a84c"/>
    </linearGradient>
    <linearGradient id="gold-text" x1="0%" y1="0%" x2="0%" y2="100%">
      <stop offset="0%" style="stop-color:#f0d078"/>
      <stop offset="100%" style="stop-color:#c9a84c"/>
    </linearGradient>
  </defs>

  <rect width="480" height="76" rx="10" ry="10" fill="url(#gold-bg)"/>
  <rect x="1" y="1" width="478" height="74" rx="9" ry="9" fill="none" stroke="url(#gold-accent)" stroke-width="1.2" opacity="0.5"/>

  <circle cx="110" cy="38" r="20" fill="none" stroke="url(#gold-accent)" stroke-width="1" opacity="0.3"/>
  <g transform="translate(100, 29)" fill="url(#gold-text)">
    <path d="M28 0H12v4H4c-2.2 0-4 1.8-4 4v4c0 4.4 3.2 8.1 7.4 8.9C8.6 24.7 12.2 28 16.5 28h7c4.3 0 7.9-3.3 9.1-7.1C36.8 20.1 40 16.4 40 12V8c0-2.2-1.8-4-4-4h-8V0zM8 12V8h4v8.5C9.5 16.2 8 14.2 8 12zm24 0c0 2.2-1.5 4.2-4 4.5V8h4v4zM14 34h12v4H14v-4z" transform="scale(0.5)"/>
  </g>

  <text x="145" y="33" font-family="'Segoe UI', 'SF Pro Display', -apple-system, Arial, sans-serif" font-size="17" font-weight="700" fill="#ffffff">&#xD604;&#xB300;&#xC624;&#xD1A0;&#xC5D0;&#xBC84; &#xB300;&#xD45C;&#xC774;&#xC0AC;&#xC0C1;</text>
  <text x="145" y="53" font-family="'Segoe UI', 'SF Pro Display', -apple-system, Arial, sans-serif" font-size="11.5" fill="#8892a4">&#xD604;&#xB300;&#xC624;&#xD1A0;&#xC5D0;&#xBC84; &#xBC30;&#xB9AC;&#xC5B4;&#xD504;&#xB9AC; &#xC571; &#xAC1C;&#xBC1C; &#xCF58;&#xD14C;&#xC2A4;&#xD2B8; 2025</text>
</svg>
